<?xml version="1.0" encoding="UTF-8" standalone="no"?>
<svg xmlns:rdf="http://www.w3.org/1999/02/22-rdf-syntax-ns#" xmlns="http://www.w3.org/2000/svg" height="172.05" width="787.55" version="1.0" xmlns:cc="http://creativecommons.org/ns#" xmlns:dc="http://purl.org/dc/elements/1.1/">
 <g fill="#e22526">
  <path d="m87.603 108.46-5.4798 1.4356c-1.2507 0.34553-2.2338 0.90518-2.4722 1.8639-0.0584 0.23846-0.08273 0.42339-0.08273 0.63752 0 1.2264 0.88085 2.2338 2.1267 2.4236h0.05353l5.616 1.4892c10.585 2.8178 19.364 11.782 19.364 22.717 0 1.4356-0.15573 2.9005-0.47693 4.3896-2.0488 9.631-8.6187 17.875-19.87 17.875-0.35039 0-0.72025 0-1.095-0.0243-7.3388-0.34552-14.176-6.8667-14.176-14.313 0-1.8882 0.42339-3.83 1.4064-5.7182 0.77379-1.5184 2.3457-2.3165 3.6743-3.0368 1.7033-0.87598 3.0854-1.6449 3.4845-3.2411 0.18493-0.69592 0.26766-1.4113 0.26766-2.1316 0-2.5258-1.0901-4.9444-3.2217-6.3558-1.0901-0.74459-2.1559-1.0366-3.1925-1.0366-3.0319 0-5.9859 2.5501-8.2975 5.3435-3.0854 3.7278-4.3361 7.6357-4.3361 11.519 0 6.5212 3.4845 12.984 7.8449 18.332 5.7474 7.0468 14.794 9.9765 23.812 10.079h0.53046c13.276 0 26.416-6.677 30.966-19.525 1.1972-3.3239 1.8104-6.8084 1.8104-10.268 0-5.1342-1.3334-10.215-4.1269-14.658-3.2412-5.1878-8.1661-9.1492-13.909-11.281l-1.679-0.60832 1.7568-0.37473c8.3267-1.8347 16.094-5.8788 22.425-11.704 9.4704-8.6479 15.164-20.698 15.831-33.521 0.26279-2.2338 0.39906-4.414 0.39906-6.5456 0-29.613-25.36-51.717-53.477-59.567-6.438-1.7812-13.008-2.662-19.554-2.662-14.896 0-29.608 4.5795-42.003 13.33-16.892 11.893-31.526 29.394-31.526 50.013 0 2.4722 0.21413 4.9736 0.63753 7.5286 2.078 11.943 5.0564 24.528 16.868 30.46 2.555 1.275 5.4798 2.4479 8.2197 2.4479 1.6498 0 3.2217-0.39906 4.6817-1.4356 2.7156-1.9418 4.5211-5.0564 4.5211-8.2197 0-1.2264-0.292-2.4771-0.90032-3.6986-1.7568-3.4845-5.9616-4.3361-9.8986-4.7644-0.1314 0-0.29199-0.02433-0.42339-0.02433-0.58886 0-1.1436 0.10706-1.786 0.23846-0.58399 0.10706-1.2507 0.21413-1.9126 0.21413-0.39906 0-0.82732-0.0292-1.2799-0.1606-2.3408-0.74459-3.6159-2.8178-4.7595-4.6038-0.29199-0.47692-0.55965-0.92952-0.85165-1.3529-2.7399-3.9419-3.83-8.1953-3.83-12.507 0-8.0591 3.8543-16.361 7.9812-23.355 5.0272-8.5408 13.193-14.42 21.866-18.839 8.6479-4.3848 18.118-6.6478 27.613-6.6478 7.8741 0 15.777 1.5427 23.199 4.7108 13.14 5.582 25.511 14.736 30.275 28.757 1.6498 4.8422 2.5014 9.8694 2.5014 14.897 0 8.5117-2.4236 16.945-7.4507 24.099-6.5456 9.339-9.9765 12.162-27.667 17.374"/>
  <path d="m43.228 39.976-13.485 5.4019c-0.82732 0.31633-1.4405 0.92952-1.4405 1.567 0 0.10706 0.0292 0.23846 0.08273 0.37473 0.20926 0.63752 0.74459 1.0074 1.3286 1.0074 0.1314 0 0.26766-0.02433 0.39906-0.04866l0.05353-0.0292h0.08273l4.0149-0.07787h0.05353c1.7276 0 2.9783 1.3821 3.9079 2.3944 0.0292 0.05353 0.08273 0.10706 0.10706 0.1314 1.4113 1.5427 2.5306 3.5137 2.5306 5.6647l0.34553 95.769c0 2.7691-1.2264 5.2705-2.7934 7.2366-1.3578 1.7325-3.1389 3.1146-5.1099 3.9371l-0.05353 0.0292h-0.02433l-5.0272 1.2215c-1.0414 0.24333-1.7568 0.82732-1.7568 1.6254 0 0.90519 0.74459 1.5962 1.7568 1.5962l27.024 0.10707c0.85165 0 1.5962-0.61319 2.263-1.5184 0.58399-0.76892 0.74459-1.8104 0.74459-2.9783l0.05353-125.62c0-1.0609-0.07786-1.9661-0.72025-2.5501-0.36986-0.3504-0.90032-0.39906-1.5962-0.39906h-0.20926-0.23846-0.48179l-11.811 5.1586z"/>
  <path d="m178.92 110.68 29.477-0.23846h0.1314c1.1728 0 2.2338-0.0292 2.9248-0.74459 0.37472-0.42826 0.48179-0.98792 0.58885-1.8104 0.0243-0.29199 0.0487-0.61319 0.1314-0.92952 0.21413-0.98791 0.292-1.971 0.292-2.9832 0-3.246-0.98305-6.5164-2.0488-9.7088-4.79-14.077-18.38-22.988-33.15-22.988h-0.32119c-12.556 0.10706-23.116 7.9277-30.431 17.797-6.6526 8.9934-8.4873 20.221-8.4873 31.287v0.71538c0.10706 16.254 3.6207 33.628 17.559 43.045 6.3314 4.2826 13.592 7.076 21.306 7.076 12.984 0 23.866-8.3267 31.073-18.916 3.0611-4.4918 5.7718-9.2806 6.4385-14.682l0.292-2.2873v-0.0535c0.0292-0.10706 0.0535-0.23846 0.0535-0.37472 0-0.53046-0.2628-1.0366-0.76892-1.3286-0.1898-0.10707-0.37473-0.1606-0.55966-0.1606-0.58399 0-1.1972 0.42826-1.6498 1.0122l-1.6254 2.1559c-2.151 3.9371-5.105 7.3923-8.5895 10.137-5.2948 4.122-11.602 7.2853-18.381 7.2853-0.95872 0-1.9418-0.0779-2.9297-0.20927-7.66-1.0658-13.617-6.2536-18.25-11.947-3.2995-4.0441-5.7426-8.7258-7.1831-13.777-0.98304-3.4601-1.5135-7.0809-1.5135-10.697 0-2.1024 0.18493-4.2047 0.55966-6.3071l0.0779-0.44773h0.4234l24.557 0.0779zm-5.2656-8.6674-16.391-0.0535c-0.95385 0-2.151-0.292-2.6572-1.4113-0.13139-0.26766-0.16059-0.55966-0.16059-0.79812s0.0292-0.47692 0.0535-0.69106c0.0243-0.21413 0.0535-0.39906 0.0535-0.58399 0.37473-8.0104 5.3192-15.349 13.115-17.88 1.9661-0.66186 4.0685-1.0122 6.1465-1.0122 2.3408 0 4.6816 0.45259 6.8619 1.387 6.3022 2.7399 10.536 8.9107 10.536 15.695 0 0.72025-0.0535 1.4648-0.1606 2.2094-0.0292 0.18493-0.0292 0.39906-0.0292 0.63752 0 0.55966 0 1.3578-0.58399 1.9418-0.50612 0.53046-1.1972 0.58399-1.7033 0.58399h-0.34553-0.31632-0.39906l-0.0535 0.0292-13.967-0.0535z"/>
  <path d="m258.81 111.53 29.477-0.23846h0.1314c1.1728 0 2.2338-0.0292 2.9248-0.74459 0.37472-0.42826 0.48179-0.98792 0.58885-1.8104 0.0243-0.29199 0.0535-0.61319 0.1314-0.92952 0.21413-0.98791 0.29199-1.971 0.29199-2.9832 0-3.246-0.98305-6.5164-2.0488-9.7088-4.7887-14.074-18.381-22.985-33.146-22.985h-0.3212c-12.556 0.10706-23.116 7.9277-30.431 17.797-6.6526 8.9934-8.4873 20.221-8.4873 31.287v0.71538c0.10707 16.254 3.6207 33.628 17.559 43.045 6.3314 4.2826 13.592 7.076 21.306 7.076 12.984 0 23.866-8.3267 31.073-18.916 3.0611-4.4918 5.7718-9.2806 6.4385-14.682l0.29199-2.2873v-0.0535c0.0292-0.10706 0.0535-0.23846 0.0535-0.37473 0-0.53045-0.2628-1.0366-0.76892-1.3286-0.1898-0.10707-0.37473-0.1606-0.55966-0.1606-0.58399 0-1.1972 0.42826-1.6498 1.0122l-1.6206 2.1559c-2.1559 3.9371-5.1099 7.3923-8.5944 10.132-5.2948 4.1269-11.602 7.2901-18.381 7.2901-0.95872 0-1.9418-0.0779-2.9297-0.20927-7.66-1.0658-13.617-6.2536-18.25-11.947-3.2995-4.0441-5.7426-8.7258-7.1831-13.782-0.98305-3.4553-1.5135-7.076-1.5135-10.692 0-2.1024 0.18493-4.2047 0.55965-6.3071l0.0779-0.45259h0.42339l24.557 0.0827zm-4.7011-9.3146-16.386-0.0535c-0.95871 0-2.1559-0.29199-2.662-1.4113-0.13139-0.26766-0.15573-0.55965-0.15573-0.79812 0-0.23846 0.0243-0.47692 0.0487-0.69105 0.0292-0.21413 0.0535-0.39906 0.0535-0.58399 0.37473-8.0104 5.3192-15.349 13.115-17.88 1.971-0.66186 4.0733-1.0074 6.1465-1.0074 2.3408 0 4.6816 0.44773 6.8619 1.3821 6.3071 2.7399 10.536 8.9107 10.536 15.695 0 0.72025-0.0535 1.4648-0.1606 2.2094-0.0243 0.18493-0.0243 0.39906-0.0243 0.63752 0 0.55966 0 1.3578-0.58886 1.9418-0.50126 0.53046-1.1923 0.58399-1.6984 0.58399h-0.34552-0.3212-0.39906l-0.0535 0.0292-13.967-0.0535z"/>
  <path d="m337.64 71.73c-11.281 1.8639-21.466 7.7427-28.732 16.493-7.076 8.5116-10.852 19.233-10.852 30.221 0 1.0366 0.0243 2.0732 0.10706 3.1146 0 11.597 3.1633 22.956 9.8938 32.348 2.954 4.1512 6.2244 7.9812 10.405 10.852 5.8788 4.0685 12.819 6.4385 20.002 6.4385h0.37473c10.4-0.10707 19.661-5.7718 26.63-13.407 4.7595-5.1878 8.0883-11.519 9.7624-18.435l0.90519-3.0611c0.13139-0.47693 0.23846-1.0122 0.23846-1.4892 0-0.69105-0.21413-1.1972-0.69105-1.5184-0.3212-0.18493-0.66673-0.2628-0.98305-0.2628-1.0414 0-1.971 0.82246-1.971 1.9126v0.13626l-0.0535 0.1022-1.4113 2.7691c-1.567 3.1389-3.6402 6.0394-6.2244 8.3802-5.1878 4.7595-11.972 7.1539-18.858 7.1539-1.3334 0-2.662-0.0779-4.0198-0.26279-7.7135-1.0414-14.206-5.5625-19.155-11.31-6.4336-7.5286-7.6308-17.554-7.6308-27.024v-1.679c0.1022-7.9812 0.58399-16.6 5.5576-23.462 3.2995-4.5503 7.3437-9.2611 13.247-10.536 1.7033-0.36986 3.5137-0.61319 5.324-0.61319 3.0319 0 6.0638 0.72026 8.5116 2.8762 1.7812 1.567 3.0076 3.7229 3.83 5.8496 0.39906 1.0414 0.47693 2.1024 0.55966 3.0854 0.0779 1.0658 0.16059 2.0245 0.53045 2.9005 1.9953 4.6281 6.2244 8.6479 10.852 8.6479 1.3334 0 2.7448-0.34552 4.1512-1.1193 3.1682-1.7568 4.8422-5.2948 5.2705-8.9642 0.0487-0.37473 0.0487-0.72025 0.0487-1.0901 0-4.8422-3.9079-8.5117-7.6065-11.943-0.23846-0.21413-0.45259-0.42826-0.66672-0.61319-5.3435-4.9736-12.317-7.6113-19.418-7.6113-2.6328 0-5.2948 0.37473-7.8741 1.095l-0.0535 0.02433z"/>
  <path d="m382 105.44-0.39906 50.651c-0.0243 1.9953-1.1193 3.6986-2.2094 5.0272-1.0658 1.3042-2.4187 2.2873-3.9371 2.9297l-0.0535 0.0243h-0.0535l-4.9201 0.79812c-1.0658 0.18493-1.8104 0.69105-1.8104 1.4113 0 0.85166 0.66672 1.4892 1.5719 1.4892l40.276 0.29199c0.85166 0 1.5135-0.66672 1.5719-1.5184v-0.0779c0-0.87598-0.74945-1.6254-1.6011-1.6254h-0.0779l-3.3774-0.39906c-2.4479-0.29199-3.9906-2.3116-5.2413-3.9371-1.0122-1.3529-1.7568-2.8956-2.1267-4.5989l-0.0292-0.0535v-0.0535l-0.39906-56.876v-0.08273c0-0.63752 0.0535-1.275 0.32119-1.9418 0.23847-0.63752 0.69106-1.1436 1.0901-1.567 0.16059-0.1898 0.29199-0.34553 0.42339-0.53532 3.3287-4.122 7.6113-7.5529 12.799-9.0421 2.4722-0.72025 5.1342-1.3042 7.7671-1.3042 2.3408 0 4.6573 0.45259 6.8084 1.6254 5.217 2.8421 8.3267 8.3511 8.3802 14.23l0.48179 55.547v0.0779c0 1.8639-0.48179 3.7813-1.7325 5.2413-1.0074 1.1728-2.2873 1.8639-3.6451 2.3165l-4.0149 1.3529c-0.1314 0.0535-0.23846 0.10707-0.37473 0.13627-1.275 0.42339-2.1267 0.76892-2.1267 1.567v0.10706c0.0827 0.95872 0.88085 1.5962 1.971 1.5962l39.103-0.0243c1.1193 0 2.0488-0.69105 2.1559-1.7033v-0.18493c0-1.0122-0.85165-1.8639-1.9174-1.8639h-0.1314l-0.0779 0.0243-0.0827-0.0243-3.2947-0.69106c-1.8639-0.39906-3.3531-1.5427-4.4967-2.9005-1.1972-1.3821-2.1559-3.1098-2.1802-5.0807l-0.50613-52.087c-0.0535-5.0028-0.77378-10.006-2.7156-14.605-2.662-6.4142-6.5164-12.531-12.794-15.593-3.246-1.5962-6.784-2.2581-10.376-2.2581-2.1316 0-4.2826 0.23846-6.4142 0.63752-4.414 0.87598-8.351 3.1633-12.264 5.4554-4.0149 2.3408-7.7135 5.1342-11.067 8.2683l-0.87598 0.82732v-1.1972l-0.53046-55.279c-0.0292-0.88085-0.48179-1.7325-1.2264-2.1802-0.34553-0.21413-0.76892-0.32119-1.168-0.32119-0.37472 0-0.74458 0.0779-1.0901 0.23846l-25.379 10.906c-0.98792 0.42826-1.679 1.0658-1.679 1.7568 0 0.13626 0.0292 0.26766 0.0827 0.42826 0.20926 0.63752 0.82245 1.0366 1.4356 1.0366 0.31633 0 0.63752-0.10706 0.92952-0.3212l0.13139-0.07787h0.13627l3.2168-0.18493c0.10706-0.0292 0.18493-0.0292 0.29199-0.0292 1.5184 0 2.847 0.69106 3.9906 1.5184 1.5719 1.168 1.9953 3.0319 2.3944 4.6281 0.1898 0.74459 0.37473 1.46 0.64239 2.1024l0.0243 0.10706v0.07787l0.39906 55.786z"/>
  <path d="m501.26 72.094c-11.281 1.8639-21.466 7.7427-28.732 16.493-7.076 8.5116-10.852 19.233-10.852 30.221 0 1.0366 0.0243 2.0732 0.10706 3.1146 0 11.597 3.1633 22.956 9.8938 32.348 2.954 4.1463 6.2292 7.9812 10.405 10.852 5.8788 4.0685 12.823 6.4385 20.002 6.4385h0.37473c10.4-0.10706 19.661-5.7718 26.63-13.407 4.7595-5.1878 8.0883-11.519 9.7624-18.435l0.90519-3.0611c0.13139-0.47692 0.23846-1.0122 0.23846-1.4892 0-0.69106-0.21413-1.1972-0.69105-1.5184-0.3212-0.18493-0.66673-0.26279-0.98305-0.26279-1.0366 0-1.971 0.82245-1.971 1.9126v0.13627l-0.0535 0.1022-1.4064 2.7691c-1.5719 3.139-3.6451 6.0394-6.2244 8.3802-5.1926 4.7595-11.972 7.1539-18.863 7.1539-1.3334 0-2.662-0.0779-4.0198-0.2628-7.7135-1.0414-14.206-5.5625-19.155-11.31-6.4336-7.5286-7.6308-17.554-7.6308-27.024v-1.679c0.1022-7.9812 0.58399-16.6 5.5576-23.462 3.2995-4.5503 7.3437-9.2611 13.247-10.536 1.7033-0.36986 3.5137-0.61319 5.324-0.61319 3.0319 0 6.0638 0.72026 8.5116 2.8762 1.7812 1.567 3.0076 3.7229 3.83 5.8496 0.39906 1.0366 0.47693 2.1024 0.55966 3.0854 0.0779 1.0658 0.16059 2.0245 0.53045 2.9005 1.9953 4.6281 6.2244 8.6479 10.857 8.6479 1.3286 0 2.7399-0.34553 4.1463-1.1193 3.1682-1.7568 4.8422-5.2948 5.2705-8.9642 0.0535-0.37473 0.0535-0.72025 0.0535-1.0901 0-4.8422-3.9127-8.5117-7.6113-11.943-0.23846-0.21413-0.45259-0.42826-0.66672-0.61319-5.3435-4.9736-12.312-7.6113-19.418-7.6113-2.6328 0-5.2948 0.37473-7.8741 1.095l-0.0535 0.02433z"/>
  <path d="m552.96 75.95-12.05 5.0564c-1.2264 0.50126-2.2094 1.0609-2.2094 1.9126 0 0.05353 0.0243 0.1606 0.0243 0.23846 0.1606 0.85165 0.90518 1.4113 1.7033 1.4113 0.3212 0 0.61319-0.07787 0.90519-0.23846l0.13626-0.07786h0.15573l3.9371 0.15573c2.078 0.10706 3.9663 1.0658 5.4262 2.4771 1.971 1.8882 2.7934 4.4919 2.8226 7.076l0.0779 64.273c0 2.1267-1.7276 3.5915-3.0562 4.5989-1.3334 0.98792-2.9005 1.4648-4.4724 1.6498l-4.6525 0.61319c-1.4648 0.18493-2.662 0.66672-2.662 1.6206v0.1898c0.1314 0.92952 0.90519 1.5427 1.7568 1.5427 0.1606 0 0.36986-0.0292 0.55966-0.0827l0.0779-0.0243h0.0779l43.498 0.0779c0.292 0 0.58399-0.0243 0.87598-0.0779 0.85166-0.21413 1.494-0.72026 1.5719-1.5427v-0.1606c0-1.0366-0.90518-1.8882-1.8882-1.8882-0.21413 0-0.45259 0.0535-0.69106 0.1606l-0.13626 0.0535-0.1314-0.0292-4.7595-0.55966c-2.0245-0.23846-3.7521-1.1972-5.1878-2.4966-1.8347-1.6498-3.2217-3.9663-3.2217-6.5212l-0.23846-60.093c-0.0243-1.8639 1.168-3.2995 2.1559-4.5503 0.1314-0.18493 0.292-0.37473 0.4234-0.55966 1.0901-1.4113 2.3944-2.7934 4.0441-3.7765 0.10706-0.05353 0.21413-0.13626 0.32119-0.18493 0.98305-0.58886 2.1802-1.3042 3.5623-1.3042h0.26766c1.1144 0.07787 1.9953 0.69105 2.7642 1.2215 0.37473 0.23846 0.72025 0.48179 1.0658 0.66672 1.0366 0.53046 1.9953 1.2507 2.9005 1.9418 1.8104 1.3578 3.4309 2.5793 5.5041 2.6328h0.29686c3.5915 0 6.9689-1.7568 8.828-4.8666 0.90518-1.4892 1.3042-3.0319 1.3042-4.5503 0-4.122-2.9248-8.1661-6.8084-10.346-1.6254-0.93438-3.3531-1.2799-5.1634-1.2799-2.5014 0-5.0807 0.69106-7.4994 1.5184-2.847 0.95872-5.1878 2.8178-7.5821 4.706-0.23846 0.1606-0.47692 0.34553-0.69105 0.53532-1.9953 1.567-3.83 3.246-5.5333 5.0272l-0.88085 0.90518-0.0243-1.2799-0.10706-7.3145c-0.0243-1.275-0.61319-2.5258-1.7033-3.1925-0.36986-0.23846-0.82245-0.34553-1.3042-0.34553-0.39906 0-0.79812 0.05353-1.2215 0.10706-0.3212 0.05353-0.66672 0.07787-1.0122 0.10706l-12.157 4.8666z"/>
  <path d="m669.24 122.54-0.0535-28.596c0-4.8422-1.1144-9.6602-3.9127-13.597-3.5088-4.9201-9.0421-7.66-14.974-8.9107-3.9371-0.79812-8.2732-1.2507-12.371-1.2507-4.0149 0-7.7963 0.42339-10.697 1.3578-7.8985 2.555-15.88 6.2487-19.34 13.884-0.0243 0.08273-0.0535 0.1898-0.1022 0.26766-1.1193 2.4479-2.1851 4.8666-2.1851 7.3437 0 0.58399 0.0535 1.1436 0.1606 1.7033 0.98305 4.4675 3.8057 8.6722 8.3802 8.6722h0.292c4.4432-0.16059 7.0225-4.3118 8.0639-8.5944 0.0779-0.39906 0.1314-0.79812 0.1314-1.2264 0-0.71539-0.10706-1.46-0.23846-2.2581-0.13626-0.77379-0.26766-1.6254-0.26766-2.4722 0-0.29686 0-0.55966 0.0535-0.85165 0.21413-1.8396 0.45259-3.8592 1.4113-5.6696 2.4722-4.7595 7.8449-6.5407 12.819-6.6769 0.1898 0 0.37473-0.02433 0.55966-0.02433 4.3897 0 8.8328 1.6206 11.811 5.0515 2.2873 2.662 3.6743 6.0394 3.6743 9.5531v0.07786l-0.0827 16.868-33.146 13.169c-4.813 1.9126-9.339 4.521-12.609 8.4581-4.0441 4.8958-6.385 10.989-6.385 17.13 0 3.1146 0.61319 6.2292 1.8882 9.2319 3.5915 8.3802 11.441 14.021 20.537 14.819 0.72026 0.0779 1.4356 0.10706 2.1559 0.10706 8.5652 0 16.576-4.4432 21.121-11.865 2.1851-3.5137 3.2752-7.6357 3.6743-11.811 0.1314-1.6254 0.292-3.2217 0.292-4.8179 0-2.6036-0.39906-5.1829-1.8347-7.6065-1.4648-2.4722-4.4724-4.9201-7.2366-4.9201-1.1972 0-2.37 0.45259-3.4066 1.5962-1.0122 1.1144-1.4648 2.4722-1.4648 3.8543 0 1.5184 0.53533 3.0611 1.4648 4.3653 0.45259 0.63753 1.1972 0.95872 2.078 1.3578 0.82245 0.34553 1.8055 0.76892 2.4722 1.6206 1.1972 1.5719 1.7812 3.4845 1.7812 5.3727 0 0.13626-0.0243 0.26766-0.0243 0.39906-0.10706 2.5014-1.4113 4.6816-2.9784 6.385-2.3408 2.5842-5.5917 3.7765-8.8864 3.7765-1.0366 0-2.078-0.1314-3.1146-0.36986-4.8422-1.0901-7.952-5.1342-9.7624-9.3633-0.90518-2.078-1.3042-4.2826-1.3042-6.4677 0-3.0562 0.79812-6.1416 2.1559-8.9642 2.0732-4.2291 5.6112-7.6065 9.9765-9.5482l0.0535-0.0292 22.746-7.7914 0.23846 41.02c0.0243 4.122 0.58399 8.2732 3.4553 11.174 2.6085 2.6036 6.3606 3.5623 10.161 3.5623 4.4432 0 8.7014-1.9953 11.709-5.397l4.706-5.2948c0.1898-0.21413 0.37473-0.39906 0.55966-0.61319 0.92952-0.95872 1.7568-1.8882 1.7568-2.7399 0-0.29199-0.10707-0.63752-0.4526-1.0122-0.47692-0.53046-1.1436-0.79812-1.8104-0.79812-0.82246 0-1.6498 0.42826-2.1267 1.1728l-0.10706 0.1314-0.1314 0.0535-4.5503 2.0245c-0.47692 0.20926-0.98305 0.31633-1.4892 0.31633-1.1728 0-2.2873-0.53046-3.1681-1.168-1.3529-1.0122-1.5962-2.6085-1.8347-3.9127-0.10706-0.53046-0.18493-1.0366-0.31632-1.5184l-0.0292-0.0779v-0.0535l0.0535-29.608z"/>
  <path d="m695.99 117.46-0.10706 40.543c-0.0243 1.5135-0.0243 3.4066-1.1728 4.813-0.92952 1.1436-2.2338 1.8882-3.6402 2.1316l-2.7399 0.42339c-1.4648 0.23846-2.5014 0.50613-2.5014 1.4648 0 0.98305 0.74459 1.6741 1.6206 1.6741 0.1898 0 0.39906-0.0243 0.61319-0.10707l0.0779-0.0535h0.10707l33.789 0.21413c0.292 0 0.60833-0.0535 0.92952-0.1314 0.92952-0.24333 1.5962-0.82731 1.5962-1.679l-0.0292-0.0779c-0.0243-1.0122-0.90032-1.7812-1.8882-1.7812-0.15574 0-0.31633 0.0243-0.47693 0.0779l-0.1314 0.0243-0.16059-0.0243-2.9248-0.79811c-1.679-0.47693-3.0903-1.4356-4.1512-2.7156-1.1728-1.3286-2.1024-3.0319-2.1024-4.9444l-0.29-70.057c0-0.26766 0-0.53046-0.0292-0.82245-0.0243-0.32119-0.0535-0.64239-0.0535-0.98792 0-0.74459 0.13626-1.567 0.74458-2.2873 0.77379-0.85165 1.8639-1.2994 3.0319-1.2994l26.528 0.04867c1.1972 0 2.3408 0.58886 3.0854 1.5184 0.63752 0.76892 0.95385 1.7276 0.95385 2.7107 0 0.37473-0.0487 0.77379-0.15573 1.1485l0.0535 60.998c0 5.9616 0.50126 12.103 4.2826 16.653 3.6159 4.3361 8.8328 7.1587 14.522 7.2366h0.21413c5.4554 0 10.346-2.9005 14.527-6.5699 1.8347-1.6254 3.4017-3.538 4.813-5.6404l1.66-2.45c0.50612-0.74459 0.98305-1.6254 0.98305-2.3408 0-0.37473-0.1314-0.72026-0.58399-0.98305-0.292-0.1606-0.58399-0.24333-0.87599-0.24333-0.63752 0-1.2507 0.37472-1.5427 0.98791l-0.0535 0.10707-0.0827 0.0779-2.1267 1.8347c-0.0243 0.0292-0.0779 0.0535-0.10706 0.0827-0.82245 0.71539-1.7033 1.4892-2.7399 1.9953-1.4648 0.71539-3.0027 1.0366-4.5502 1.0366-1.2215 0-2.4479-0.21413-3.5915-0.55966-2.6864-0.82732-4.9444-2.6328-6.4628-4.9493-1.567-2.3408-2.1024-5.1342-2.1024-7.8985l-0.1606-60.02c0-0.34553-0.0535-0.69105-0.13139-1.1144-0.0535-0.42826-0.1314-0.88085-0.1314-1.3578 0-0.63752 0.1606-1.3286 0.74459-1.9174 0.71538-0.71539 1.7033-1.0366 2.6864-1.0366l12.449-0.05353c2.078 0 3.9127-1.5135 3.9127-3.5623 0-1.971-1.6498-3.538-3.5672-3.538-0.1606 0-0.31633 0.02433-0.47692 0.05353h-0.0535l-11.042 0.02433h-0.2628-0.32119c-0.76892 0-1.6741-0.02433-2.4479-0.58399-1.0122-0.69105-1.6741-1.8347-1.6741-3.0611 0-0.15573 0.0243-0.292 0.0243-0.42339l-0.10707-19.048c0-1.4113-0.31632-2.6864-1.3821-3.0075-0.18493-0.02433-0.31633-0.05353-0.4234-0.05353-0.72025 0-1.0901 0.69105-1.5962 1.9174-0.21413 0.47692-0.42826 0.98305-0.69105 1.3821-0.72025 1.0366-1.0658 2.263-1.4405 3.538-0.26279 0.95872-0.55479 1.9953-1.0366 2.9248-1.7812 3.5137-4.0149 6.8667-7.0225 9.4704-3.2168 2.7934-7.1052 4.5503-11.037 5.7231-3.1146 0.92952-6.3314 1.4356-9.5774 1.4356h-0.3504l-10.877-0.10706c-1.1728-0.02433-2.555-0.1314-3.538-1.1436-0.72026-0.74459-1.1436-1.7568-1.1436-2.7934 0-0.18493 0.0243-0.34553 0.0535-0.53046l0.0243-18.756c0-2.3944 0.66672-4.7108 1.8347-6.8132 1.4113-2.4966 3.3531-4.998 6.3606-6.0102 0.87598-0.32119 1.7812-0.45259 2.6572-0.45259 2.662 0 5.217 1.1728 7.4751 2.37 2.1851 1.168 3.8884 2.9783 5.509 4.6816 0.82245 0.87598 1.3821 1.9126 1.9174 2.8713 0.74459 1.3286 1.4064 2.5306 2.5258 3.3239 2.0488 1.4113 4.4967 2.37 6.8376 2.37 1.6498 0 3.2703-0.47692 4.6816-1.5962 1.9661-1.5427 2.7107-3.7229 2.7107-6.1173 0-1.9418-0.50125-3.9906-1.275-5.8253-1.2507-3.0903-4.2047-4.9785-7.1052-6.8132-0.0779-0.0535-0.15573-0.10707-0.23846-0.1314-4.3069-2.7399-9.3633-3.7765-14.444-3.7765-1.7033 0-3.3774 0.1022-5.0515 0.31633-8.3802 1.0122-16.069 5.0272-21.549 11.412-3.6207 4.2291-5.7474 9.4168-7.2366 14.741-0.72026 2.6036-0.85166 5.29-0.95872 8.0299-0.10707 2.2094-0.18493 4.4724-0.63752 6.6818-0.0535 0.2628-0.0827 0.55479-0.0827 0.87598-0.0535 0.63752-0.0779 1.4892-0.63753 2.1267-0.66672 0.77379-1.6206 1.1728-2.5793 1.1728-0.23847 0-0.47693-0.0292-0.72026-0.05353l-7.076 0.1314c-1.8882 0.05353-3.4845 1.4892-3.5088 3.3287v0.04867c0 1.9418 1.4892 3.4601 3.4017 3.4601h6.4142c1.0609 0 2.5014 0.02433 3.5088 0.98305 1.1193 1.0658 1.0901 2.662 1.0901 3.7521v0.07787l0.0292 32.085z"/>
 </g>
</svg>
