<?xml version="1.0" encoding="utf-8"?>
<!-- Generator: Adobe Illustrator 18.0.0, SVG Export Plug-In . SVG Version: 6.00 Build 0)  -->
<!DOCTYPE svg PUBLIC "-//W3C//DTD SVG 1.1//EN" "http://www.w3.org/Graphics/SVG/1.1/DTD/svg11.dtd">
<svg version="1.1" id="Layer_1" xmlns="http://www.w3.org/2000/svg" xmlns:xlink="http://www.w3.org/1999/xlink" x="0px" y="0px"
	 viewBox="0 0 506.6 68.9" enable-background="new 0 0 506.6 68.9" xml:space="preserve">
<path fill="#231F20" d="M17.3,55.2h4.8c3.2,0,6.1-2.8,6.1-8.2c0-5.1-3-8-6.1-8h-4.8V55.2z M17.3,27.3h4.2c3.5,0,5.5-3.2,5.5-6.7
	c0-3.7-1.9-6.9-5.5-6.9h-4.2V27.3z M0,1.3h26.1c12.4,0,18.1,6.6,18.1,16.6c0,7-3.1,13.4-10.4,14.9v0.2c8.7,0.8,12.3,8.3,12.3,15.1
	c0,11.5-5.6,19.6-20,19.6H0V1.3z"/>
<path fill="#231F20" d="M74.7,57.2c5.3,0,5.9-4.8,5.9-22.8c0-17.9-0.6-22.8-5.9-22.8c-5.3,0-5.8,4.8-5.8,22.8
	C68.9,52.4,69.4,57.2,74.7,57.2 M74.7,0c17.7,0,23.7,9.7,23.7,34.5c0,24.8-6,34.5-23.7,34.5C57.1,68.9,51,59.3,51,34.5
	C51,9.7,57.1,0,74.7,0"/>
<polygon fill="#231F20" points="104.9,1.3 129.6,1.3 136.6,40.6 136.8,40.6 143.7,1.3 168.4,1.3 168.4,67.6 152.3,67.6 152.3,18.2 
	152.1,18.2 142.9,67.6 130.4,67.6 121.3,18.2 121.1,18.2 121.1,67.6 104.9,67.6 "/>
<path fill="#231F20" d="M193.3,55.2h4.8c3.2,0,6.1-2.8,6.1-8.2c0-5.1-3-8-6.1-8h-4.8V55.2z M193.3,27.3h4.2c3.5,0,5.5-3.2,5.5-6.7
	c0-3.7-2-6.9-5.5-6.9h-4.2V27.3z M176,1.3h26.1c12.3,0,18.1,6.6,18.1,16.6c0,7-3.1,13.4-10.4,14.9v0.2c8.7,0.8,12.3,8.3,12.3,15.1
	c0,11.5-5.6,19.6-20,19.6H176V1.3z"/>
<path fill="#231F20" d="M250.2,14.9H250L245.2,43h9.7L250.2,14.9z M239.2,1.3h21.7l16.2,66.3h-18.4L256.9,56h-13.7l-1.8,11.6h-18.4
	L239.2,1.3z"/>
<path fill="#231F20" d="M299.1,29.4h3.5c4.9,0,7.2-3.2,7.2-7.9c0-5.4-2.1-7.7-7.3-7.7h-3.3V29.4z M281.8,1.3h27.1
	c13.2,0,18.2,7.4,18.2,17.7c0,8.8-3.5,14.6-11.3,15.8v0.2c8.4,0.7,10.8,6,10.8,14.9v5.6c0,3.4,0,7.9,0.9,9.2c0.5,0.7,0.8,1.5,1.9,2
	v0.9H311c-1.7-3.5-1.7-9.8-1.7-12.6v-4.5c0-7.5-1.5-9.5-5.7-9.5h-4.6v26.6h-17.3V1.3z"/>
<path fill="#231F20" d="M351.9,55.2h3.4c6.7,0,7.5-2.8,7.5-20.7c0-17.9-0.8-20.7-7.5-20.7h-3.4V55.2z M334.6,1.3h25.1
	c20,0,21,15.8,21,33.2c0,17.4-1,33.2-21,33.2h-25.1V1.3z"/>
<rect x="387.6" y="1.3" fill="#231F20" width="17.3" height="66.3"/>
<polygon fill="#231F20" points="412.6,1.3 451.9,1.3 451.9,15.4 429.9,15.4 429.9,26.8 450.5,26.8 450.5,40.3 429.9,40.3 
	429.9,53.5 452.7,53.5 452.7,67.6 412.6,67.6 "/>
<path fill="#231F20" d="M476.3,29.4h3.4c4.9,0,7.3-3.2,7.3-7.9c0-5.4-2.1-7.7-7.3-7.7h-3.3V29.4z M459.1,1.3h27
	c13.2,0,18.2,7.4,18.2,17.7c0,8.8-3.4,14.6-11.3,15.8v0.2c8.4,0.7,10.9,6,10.9,14.9v5.6c0,3.4,0,7.9,0.8,9.2c0.4,0.7,0.9,1.5,1.9,2
	v0.9h-18.4c-1.7-3.5-1.7-9.8-1.7-12.6v-4.5c0-7.5-1.5-9.5-5.7-9.5h-4.5v26.6h-17.3V1.3z"/>
</svg>
