<?xml version="1.0" encoding="UTF-8" standalone="no"?>
<!-- Created with Inkscape (http://www.inkscape.org/) -->

<svg
   width="76.032364mm"
   height="49.119522mm"
   viewBox="0 0 76.032365 49.119522"
   version="1.1"
   id="svg5"
   inkscape:version="1.1.2 (b8e25be833, 2022-02-05)"
   sodipodi:docname="De Havilland Canada (Icon).svg"
   xmlns:inkscape="http://www.inkscape.org/namespaces/inkscape"
   xmlns:sodipodi="http://sodipodi.sourceforge.net/DTD/sodipodi-0.dtd"
   xmlns="http://www.w3.org/2000/svg"
   xmlns:svg="http://www.w3.org/2000/svg">
  <sodipodi:namedview
     id="namedview7"
     pagecolor="#ffffff"
     bordercolor="#666666"
     borderopacity="1.0"
     inkscape:pageshadow="2"
     inkscape:pageopacity="0.0"
     inkscape:pagecheckerboard="0"
     inkscape:document-units="mm"
     showgrid="false"
     inkscape:zoom="0.64052329"
     inkscape:cx="606.53532"
     inkscape:cy="352.83651"
     inkscape:window-width="1920"
     inkscape:window-height="1017"
     inkscape:window-x="-8"
     inkscape:window-y="-8"
     inkscape:window-maximized="1"
     inkscape:current-layer="layer1" />
  <defs
     id="defs2" />
  <g
     inkscape:label="Layer 1"
     inkscape:groupmode="layer"
     id="layer1"
     transform="translate(55.50907,-54.750392)">
    <g
       id="g838"
       transform="matrix(1.0452668,0,0,1.0452668,-55.50907,54.750392)"
       style="fill:#ffffff;fill-opacity:1">
      <path
         id="path5904"
         d="m 36.368915,0 c -1.17937,0 -1.45524,1.22348 -1.80469,3.21094 -0.34944,1.98745 -0.57474,5.34992 -0.6621,6.92969 l -2.02344,0.13867 c 0.10192,0.2184 0.20365,0.43589 0.29101,0.65429 l 2.07422,-0.12304 a 0.32760223,0.32760223 0 0 0 0.3125,-0.3125 c 0.0728,-1.45601 0.29136,-4.95182 0.66992,-7.15039 0.37857,-2.19858 0.6257,-2.61914 1.14258,-2.61914 0.51689,0 0.77325,0.54503 1.14453,2.65625 0.37129,2.11121 0.58789,5.72882 0.66797,7.14843 a 0.32760223,0.32760223 0 0 0 0.30664,0.31446 l 2.58399,0.17382 v -0.66992 l -2.24219,-0.16015 A 68.825589,68.825589 0 0 0 38.167745,3.26172 C 37.825585,1.24515 37.548285,0 36.368915,0 Z m -7.6289,10.50391 -8.67774,0.56836 V 11.75 l 2.875,-0.18945 6.02149,-0.39258 c -0.0437,-0.16744 -0.19691,-0.60582 -0.21875,-0.66406 z m 15.63086,0.0293 v 0.66992 l 8.40039,0.54687 v -0.66992 z m -27.6211,0.75781 c -6.22444,0.40768 -11.95396,0.78604 -13.78125,0.93164 -2.06025001,0.15288 -2.88281001,0.65604 -2.96289001,1.74804 -0.10192,1.35409 1.17908001,2.40233 3.81445001,3.12305 l 12.92969,3.57422 v -0.72852 l -12.7539,-3.49414 c -1.56522,-0.42952 -3.41496001,-1.20078 -3.32032001,-2.42383 0,-0.39312 0.0724,-0.9469 2.34375001,-1.1289 1.82002,-0.1456 7.52787,-0.52396 13.73047,-0.93164 z m 39.32031,0.008 v 0.66992 c 6.17349,0.4004 11.83713,0.77822 13.64258,0.92383 2.27866,0.18201 2.32244,0.72851 2.35156,1.12891 0.0946,1.22305 -1.7551,1.99431 -3.32031,2.42383 l -12.67383,3.50977 v 0.72656 l 12.84766,-3.55273 c 2.60626,-0.75713 3.91833,-1.80412 3.81641,-3.15821 -0.0874,-1.092 -0.9172,-1.5806 -2.96289,-1.74804 -1.82002,-0.1456 -7.50585,-0.52343 -13.70118,-0.92383 z m -3.30664,9.5371 -8.39257,2.36524 v 0.69922 l 8.39257,-2.33789 z m -32.70117,0.0566 v 0.72852 l 8.0957,2.24219 c 0.10921,-0.2184 0.21058,-0.41441 0.3125,-0.63282 z m 11.18164,3.10157 c -0.11648,0.20384 -0.24733,0.39328 -0.37109,0.58984 l 3.16015,0.89648 c 0.0655,0.84449 0.22567,3.00615 0.4004,5.38672 h 0.043 0.64843 c -0.19656,-2.66448 -0.37091,-5.09673 -0.42187,-5.67186 a 0.33488228,0.33488228 0 0 0 -0.23243,-0.29101 c -0.18928,-0.0582 -1.39199,-0.40056 -3.22656,-0.91016 z m 9.82227,0.0957 -2.77539,0.78515 a 0.33488228,0.33488228 0 0 0 -0.23242,0.29102 c -0.051,0.59696 -0.2326,3.0001 -0.42188,5.67187 h 0.625 v 0.0293 h 0.0449 c 0.17472,-2.38057 0.33487,-4.54223 0.40039,-5.38672 l 2.35938,-0.66406 z m -6.30469,11.32031 0.26953,3.77734 c -3.54538,0.47321 -6.26983,1.24571 -8.16992,2.3086 -2.06025,1.18664 -2.44602,1.79863 -2.40234,2.41015 0.0801,1.09929 1.15053,1.405 2.14062,1.60157 a 65.891729,65.891729 0 0 0 9.09961,0.61914 c 0.12376,0.41496 0.26206,0.82883 0.64063,0.86523 h 0.0586 c 0.37856,0 0.51686,-0.45027 0.64062,-0.86523 a 65.891729,65.891729 0 0 0 9.10156,-0.61914 c 0.99009,-0.19657 2.05274,-0.50228 2.13282,-1.60157 0.051,-0.5824 -0.33623,-1.19438 -2.39649,-2.41015 -1.90009,-1.09201 -4.64442,-1.86451 -8.16797,-2.3086 l 0.26953,-3.77734 h -0.66992 c -0.15288,2.18401 -0.27592,3.87997 -0.2832,4.05469 a 0.34216233,0.34216233 0 0 0 0.29883,0.35742 c 3.58178,0.41496 6.34831,1.17841 8.22656,2.25586 2.10393,1.20849 2.07369,1.62446 2.06641,1.77734 -0.0364,0.44408 -0.29844,0.72673 -1.60157,0.9961 a 67.915582,67.915582 0 0 1 -9.21679,0.60546 0.33488228,0.33488228 0 0 0 -0.3125,0.23243 c 0,0.0582 -0.0446,0.13174 -0.0664,0.19726 -0.0218,0.0655 7.1e-4,0.0863 -0.043,0.14453 0,-0.0582 7.1e-4,-0.10085 -0.043,-0.14453 -0.0437,-0.0437 -0.0446,-0.13902 -0.0664,-0.19726 a 0.33488228,0.33488228 0 0 0 -0.3125,-0.23243 67.799102,67.799102 0 0 1 -9.2168,-0.60546 c -1.30313,-0.26209 -1.56516,-0.55202 -1.60156,-0.9961 0,-0.15288 -0.0356,-0.56885 2.06836,-1.77734 1.87825,-1.07745 4.64477,-1.8409 8.22656,-2.25586 a 0.34216233,0.34216233 0 0 0 0.29687,-0.35742 c 0,-0.17472 -0.13032,-1.87796 -0.2832,-4.05469 z"
         style="fill:#ffffff;fill-opacity:1;stroke-width:0.728005" />
      <path
         id="path5924"
         d="m 30.909935,31.39844 c -0.0437,0 -3.6e-4,-7.1e-4 -0.0586,0.043 a 1.4560099,1.4560099 0 0 1 -0.50196,0.21875 c 0,0 -0.0449,0.001 -0.0449,0.0449 v 0.0566 a 0.16016109,0.16016109 0 0 1 0,0.15429 l -0.43554,1.16407 c -0.1456,0.38584 -0.46715,1.16512 -0.52539,1.25976 a 0.37128253,0.37128253 0 0 1 -0.30469,0.18946 h -0.11719 v 0.043 0.0879 0.0508 h 1.10742 c 0,0 0.043,7.1e-4 0.043,-0.043 v -0.10352 h -0.0508 -0.16015 c -0.13104,0 -0.16797,-0.1012 -0.16797,-0.20312 a 6.4210037,6.4210037 0 0 1 0.21094,-0.87305 h 0.97656 c 0.0582,0.16016 0.22585,0.72851 0.26953,0.88867 0.0437,0.16016 -0.0144,0.15234 -0.13086,0.15234 h -0.13086 v 0.043 0.0879 c 0,0 -7.1e-4,0.0508 0.043,0.0508 h 1.36133 c 0.0364,0 0.043,1.8e-4 0.043,-0.0508 v -0.0879 -0.043 h -0.15234 a 0.33488228,0.33488228 0 0 1 -0.26172,-0.19726 c -0.0582,-0.12376 -0.88139,-2.57688 -0.96875,-2.85352 0,-0.051 7.1e-4,-0.0801 -0.043,-0.0801 z m 8.19726,0 c -0.051,0 1.8e-4,-7.1e-4 -0.0508,0.043 a 1.4560099,1.4560099 0 0 1 -0.50195,0.21875 c 0,0 -0.0449,0.001 -0.0449,0.0449 a 0.14560099,0.14560099 0 0 0 0,0.0566 c 0.0364,0.051 0,0.11061 0,0.15429 l -0.43555,1.16407 c -0.1456,0.38584 -0.46715,1.16512 -0.52539,1.25976 a 0.37128253,0.37128253 0 0 1 -0.30468,0.18946 h -0.1172 v 0.043 0.0879 0.0508 h 1.0918 c 0.0364,0 0.0371,7.1e-4 0.0371,-0.043 v -0.10352 h -0.0449 -0.17383 c -0.13104,0 -0.16796,-0.1012 -0.16796,-0.20312 a 5.4745973,5.4745973 0 0 1 0.24023,-0.87305 h 0.97656 c 0.051,0.16016 0.22585,0.72851 0.26953,0.88867 0.0437,0.16016 -0.0149,0.15234 -0.13867,0.15234 h -0.125 v 0.043 0.0879 c 0,0 10e-4,0.0508 0.0449,0.0508 h 1.36133 c 0,0 0.043,1.8e-4 0.043,-0.0508 v -0.0879 -0.043 h -0.15235 a 0.33488228,0.33488228 0 0 1 -0.26172,-0.19726 c -0.0582,-0.12376 -0.34925,-0.94548 -0.45117,-1.29492 -0.10192,-0.34944 -0.43021,-1.28195 -0.51758,-1.55859 0,-0.051 1.8e-4,-0.0801 -0.0508,-0.0801 z m 8.20508,0 c -0.051,0 -3.5e-4,-7.1e-4 -0.0586,0.043 a 1.4123296,1.4123296 0 0 1 -0.49609,0.21875 c 0,0 -0.043,0.001 -0.043,0.0449 a 0.14560099,0.14560099 0 0 0 0,0.0566 0.18928129,0.18928129 0 0 1 0,0.15429 c 0,0.11649 -0.4011,1.06943 -0.4375,1.16407 -0.1456,0.38584 -0.45792,1.16512 -0.52344,1.25976 a 0.37128253,0.37128253 0 0 1 -0.29883,0.18946 h -0.11719 v 0.043 0.0879 0.0508 h 1.09375 v -0.043 -0.10352 h -0.0508 -0.15429 c -0.13104,0 -0.17383,-0.1012 -0.17383,-0.20312 a 5.4673172,5.4673172 0 0 1 0.3125,-0.87305 h 0.97656 c 0.051,0.16016 0.22532,0.72851 0.26172,0.88867 0.0364,0.16016 1.8e-4,0.16016 -0.13086,0.16016 h -0.125 v 0.043 0.0879 c 0,0 -1.8e-4,0.0508 0.0508,0.0508 h 1.36133 v -0.0508 -0.0879 c 0,0 0.008,-0.0508 -0.0215,-0.0508 h -0.15234 a 0.32032218,0.32032218 0 0 1 -0.25586,-0.19727 c -0.0655,-0.12376 -0.34925,-0.94548 -0.45118,-1.29492 -0.10192,-0.34944 -0.43554,-1.28195 -0.51562,-1.55859 0,-0.051 1.8e-4,-0.0801 -0.0508,-0.0801 z m -4.375,0.0625 a 2.1840149,2.1840149 0 0 0 -0.28515,0.01 h -0.66211 -0.72852 v 0.13086 h 0.0371 0.21875 c 0.0728,0 0.12997,-1.8e-4 0.14453,0.13086 0.0146,0.13104 0.0156,2.60067 0.0156,2.69531 0,0.0728 -0.0591,0.10156 -0.14648,0.10156 h -0.22461 v 0.11524 h 1.45508 a 2.0311338,2.0311338 0 0 0 1.45507,-0.46485 1.6016109,1.6016109 0 0 0 0.4375,-1.17187 1.4123296,1.4123296 0 0 0 -0.49414,-1.12891 2.1840149,2.1840149 0 0 0 -1.22265,-0.41797 z m -16.07617,0.0176 a 1.5433705,1.5433705 0 0 0 -1.17773,0.48047 1.7472119,1.7472119 0 0 0 -0.45899,1.20898 1.7035316,1.7035316 0 0 0 0.48633,1.18555 1.6016109,1.6016109 0 0 0 1.1875,0.4082 1.5797708,1.5797708 0 0 0 1.31055,-0.72851 v -0.0508 l -0.0723,-0.0644 h -0.0664 a 1.2667286,1.2667286 0 0 1 -1.04883,0.48046 0.93912639,0.93912639 0 0 1 -0.72656,-0.33593 1.8272924,1.8272924 0 0 1 -0.39454,-1.15625 c 0.051,-0.63337 0.32864,-1.22461 0.97657,-1.22461 a 1.026487,1.026487 0 0 1 0.72851,0.33594 1.3395291,1.3395291 0 0 1 0.35547,0.59765 c 0,0.0364 3.5e-4,0.0575 0.0586,0.043 h 0.0937 v -0.0586 c 0,-0.0582 -0.10156,-0.88725 -0.10156,-0.97461 0,-0.0874 5.3e-4,-0.0742 -0.0723,-0.0742 h -0.0879 l -0.006,0.11719 h -0.0957 a 1.9656134,1.9656134 0 0 0 -0.88867,-0.18945 z m 6.16016,0.12304 v 0.125 h 0.10937 c 0.22568,0 0.38477,0.25355 0.38477,0.51563 v 0.40039 c 0,0.66248 7.1e-4,1.36967 -0.043,1.45703 0,0.29848 -0.0948,0.4375 -0.18946,0.4375 h -0.15234 v 0.11524 h 1.01172 v -0.10938 -0.043 h -0.11719 c -0.182,0 -0.26278,-0.13192 -0.27734,-0.38672 -0.0146,-0.2548 -0.043,-0.72726 -0.043,-1.08398 v -0.87305 h 0.0293 c 0.10192,0.1456 1.23046,1.52769 1.55078,1.90625 0.32032,0.37856 0.48775,0.54634 0.56055,0.61914 a 0.24024164,0.24024164 0 0 0 0.17382,0.0723 c 0.0655,0 0.0664,-0.079 0.0664,-0.14453 v -0.72852 c 0,-0.5824 0.0724,-1.58628 0.10157,-1.88476 0,-0.16016 0.0586,-0.24024 0.13867,-0.24024 h 0.12305 V 31.6465 h -0.043 -0.42188 -0.52539 -0.0352 v 0.10938 h 0.14453 a 0.23296159,0.23296159 0 0 1 0.23438,0.17383 c 0,0.0655 -7.2e-4,0.50301 0.043,0.67773 0.0437,0.17472 0,0.44282 0,0.83594 v 0.40039 l -1.79102,-2.18359 a 0.15288104,0.15288104 0 0 0 -0.13086,-0.0586 z m 9.58007,0.125 a 0.55328377,0.55328377 0 0 1 0.13868,0.0137 1.3031289,1.3031289 0 0 1 0.88086,0.4004 1.5069703,1.5069703 0 0 1 0.36328,0.96875 1.769052,1.769052 0 0 1 -0.3125,1.01953 1.0774473,1.0774473 0 0 1 -0.83789,0.42968 0.32760223,0.32760223 0 0 1 -0.42969,-0.34179 v -2.2793 a 0.20384139,0.20384139 0 0 1 0.0879,-0.19727 0.55328377,0.55328377 0 0 1 0.10937,-0.0137 z m -12.14257,0.30469 c 0.051,0 -1.8e-4,10e-4 0.0508,0.0957 0.051,0.0946 0.2903,1.04865 0.33398,1.17969 h -0.88086 c 0.0364,-0.1092 0.42347,-1.16637 0.44531,-1.22461 0.0218,-0.0582 -1.8e-4,-0.0508 0.0508,-0.0508 z m 8.20312,0 c 0.051,0 0.002,10e-4 0.0527,0.0957 0.051,0.0946 0.2903,1.04865 0.33398,1.17969 h -0.88085 c 0,-0.1092 0.42151,-1.16637 0.44335,-1.22461 0.0218,-0.0582 -1.7e-4,-0.0508 0.0508,-0.0508 z m 8.25586,0 c 0.0582,0 0.001,10e-4 0.0449,0.0957 0.0437,0.0946 0.29758,1.04865 0.33398,1.17969 h -0.87304 c 0,-0.1092 0.41566,-1.16637 0.4375,-1.22461 0.0218,-0.0582 -0.002,-0.0508 0.0566,-0.0508 z"
         style="fill:#ffffff;fill-opacity:1;stroke-width:0.728005" />
      <path
         id="path5936"
         d="m 24.105245,5.38086 a 6.7049257,6.7049257 0 0 0 -1.10156,0.14453 c -1.51425,0.29848 -3.0067,0.72868 -4.51367,1.07813 a 17.049876,17.049876 0 0 1 -2.02344,0.23242 h -0.13867 a 0.17472119,0.17472119 0 0 0 -0.16016,0.16797 v 0.11523 a 0.13832094,0.13832094 0 0 0 0.13867,0.14649 h 0.10156 c 0.51689,-0.0364 0.99663,0.51666 1.00391,1.33203 l 0.008,15.89843 c 0,0.81537 -0.48702,1.37767 -1.00391,1.33399 h -0.11718 a 0.13104089,0.13104089 0 0 0 -0.13868,0.12305 v 0.15234 a 0.12376084,0.12376084 0 0 0 0.11719,0.13086 h 0.16016 a 17.530359,17.530359 0 0 1 2.05273,0.22656 c 1.50697,0.3276 2.99942,0.77964 4.51367,1.07813 a 6.7049257,6.7049257 0 0 0 2.43946,0.0723 c 2.27137,-0.40769 3.96019,-1.86429 5.20508,-3.96094 a 14.916822,14.916822 0 0 0 1.79687,-7.11914 12.572646,12.572646 0 0 0 -1.79687,-7.1211 c -1.24488,-2.10393 -2.91185,-3.55858 -5.20507,-3.95898 a 6.7049257,6.7049257 0 0 0 -1.33789,-0.0723 z m 16.60547,0.21484 a 0.13104089,0.13104089 0 0 0 -0.125,0.13282 V 5.9043 a 0.12376084,0.12376084 0 0 0 0.10742,0.12304 1.2958488,1.2958488 0 0 1 0.72852,0.30665 2.0748141,2.0748141 0 0 1 0.3125,1.18554 v 18.92774 a 1.9728934,1.9728934 0 0 1 -0.30469,1.21679 1.8709727,1.8709727 0 0 1 -0.72852,0.42969 0.13832094,0.13832094 0 0 0 -0.0801,0.11523 v 0.24024 a 0.12376084,0.12376084 0 0 0 0.16797,0.11719 c 0.41496,-0.1456 1.45613,-0.51722 1.8711,-0.61914 0.41496,-0.10192 1.4556,-0.29723 1.7832,-0.35547 a 0.13104089,0.13104089 0 0 0 0.10156,-0.13086 v -0.1543 a 0.12376084,0.12376084 0 0 0 -0.15234,-0.12305 0.65520446,0.65520446 0 0 1 -0.44336,-0.0586 c -0.2912,-0.17472 -0.24024,-0.72796 -0.24024,-1.52148 v -8.94727 a 0.24752169,0.24752169 0 0 1 0.25391,-0.2539 h 9.2168 a 0.26208178,0.26208178 0 0 1 0.26172,0.2539 v 7.11914 a 1.9728934,1.9728934 0 0 1 -0.3125,1.15039 1.9656134,1.9656134 0 0 1 -0.72852,0.4375 0.11648079,0.11648079 0 0 0 -0.0879,0.11719 v 0.18164 a 0.13104089,0.13104089 0 0 0 0.16797,0.12305 c 0.41496,-0.1456 1.45613,-0.52308 1.87109,-0.625 0.41497,-0.10192 1.4556,-0.29918 1.78321,-0.35742 a 0.12376084,0.12376084 0 0 0 0.10156,-0.12305 v -0.10937 a 0.12376084,0.12376084 0 0 0 -0.15235,-0.125 0.61880421,0.61880421 0 0 1 -0.44335,-0.0566 c -0.29121,-0.17473 -0.24024,-0.72939 -0.24024,-1.51563 V 8.64847 c 0,-0.77169 1.7e-4,-1.27503 0.26953,-1.45703 a 0.8517658,0.8517658 0 0 1 0.43555,-0.10742 0.13104089,0.13104089 0 0 0 0.13086,-0.125 v -0.0801 a 0.12376084,0.12376084 0 0 0 -0.13086,-0.13086 h -1.79687 a 17.61044,17.61044 0 0 1 -1.8418,-0.27735 0.12376084,0.12376084 0 0 0 -0.1543,0.125 v 0.11524 a 0.12376084,0.12376084 0 0 0 0.0957,0.125 1.7472119,1.7472119 0 0 1 0.72852,0.38476 1.8200124,1.8200124 0 0 1 0.30468,1.09961 v 6.9668 a 0.26208178,0.26208178 0 0 1 -0.26171,0.25586 h -9.22461 a 0.25480173,0.25480173 0 0 1 -0.25391,-0.25586 V 7.85548 c 0,-0.72801 1.7e-4,-1.26775 0.26953,-1.45703 a 0.8372057,0.8372057 0 0 1 0.43555,-0.10156 0.13104089,0.13104089 0 0 0 0.13086,-0.12305 v -0.0957 a 0.12376084,0.12376084 0 0 0 -0.12305,-0.13086 c -0.33488,0 -1.20825,7.1e-4 -1.8125,-0.043 a 14.836741,14.836741 0 0 1 -1.86328,-0.30664 0.13104089,0.13104089 0 0 0 -0.0273,-0.002 z m -16.28516,0.62696 a 4.848513,4.848513 0 0 1 3.0918,1.20898 6.6321252,6.6321252 0 0 1 1.92187,3.0293 21.840149,21.840149 0 0 1 0.87305,4.18554 23.034077,23.034077 0 0 1 0,3.78711 16.933395,16.933395 0 0 1 -0.87305,4.18555 6.6685254,6.6685254 0 0 1 -1.92187,3.02734 4.848513,4.848513 0 0 1 -4.5293,1.02735 12.747367,12.747367 0 0 1 -2.5039,-0.93945 2.0456939,2.0456939 0 0 1 -1.0918,-1.99415 V 9.33984 a 1.9728934,1.9728934 0 0 1 1.0918,-1.99414 17.093556,17.093556 0 0 1 2.5039,-0.93945 4.848513,4.848513 0 0 1 1.4375,-0.18359 z"
         style="fill:#ffffff;fill-opacity:1;stroke-width:0.728005" />
    </g>
  </g>
</svg>
