<svg xmlns="http://www.w3.org/2000/svg" height="800" width="1200" viewBox="-7.8643785 -1.8910025 68.157947 11.346015"><path d="M0 0h30.9446l-.69779 1.74978S21.74134.4907 5.45112.13476C.37853.024.01058.13476.01058.13476zm3.0606 2.2431h3.2907l1.1543 3.46251 2.94322-3.49073h2.60032L8.2609 7.56228H5.1628zm10.38768 0H16.443l-1.78894 5.31918h-3.03389zm3.80576.01725h2.909l-.77646 2.35973 3.8788-2.40524h3.01201l-3.54824 2.06199 2.01613 3.28542H21.6433L20.38636 5.3796l-1.56634.89676-.4459 1.28588h-2.96475zm9.92018 0h2.94323l-1.772 5.3019H25.3292zm3.73688 0h2.94357l2.53153 2.7933 1.01671-2.8388h2.54882l-1.78929 5.3474H35.7512l-3.01625-3.11362-.96555 3.11362h-2.68605zM46.598 4.05387l2.85079-.20778s-.00035-1.74096-4.5138-1.72897c-3.82128.00988-5.44653 2.0052-5.44653 3.10797-.00035 1.68946 1.54411 2.29059 4.3547 2.33716 2.32586.03915 2.88995-.58703 2.88995-.58703l.01023.58703h1.54516l.98249-2.92488h-4.68524l-.34749 1.137h1.63866s-.32597.74224-1.51448.70802c-1.1885-.03457-1.57021-.29174-1.48449-1.3776.08573-1.08549 1.07068-1.74518 2.13678-1.74166 1.35325.00388 1.58326.69074 1.58326.69074" fill="#ffffff" fill-rule="evenodd"/><path d="M51.13415 2.14905l.23848-.44838.23354.44274.1965-.09384s-.12066.57679-.09984.5976c.02116.02082.31432-.25964.31432-.25964s0 .11783.05821.13864c.07585.02752.14711.02117.22013.00282.07338-.0187.09984-.02081.09984-.02081s-.07585.15381-.06809.23072c.0067.07443.01306.09384.0494.12312.03668.02892.05256.0522.05256.0522s-.07338.07374-.21484.17851c-.14182.10478-.2099.15452-.24413.1965-.03386.04233-.04445.0942-.04445.11783 0 .02399.00847.06844.0187.10477.01023.03704.0074.03951.0074.03951s-.22789-.04233-.3196-.04974c-.09173-.0074-.11819-.02575-.15735-.0074-.0395.01763-.02857.04162-.02857.04162l.01023.46108-.17568.00282s.02363-.46143.01587-.48224c-.00811-.02152-.03175-.02893-.06562-.02893-.03386 0-.44555.06809-.44555.06809s.0709-.12842.00282-.2332c-.0688-.10512-.47484-.42227-.47484-.42227s.09666-.0575.1023-.11006c.0053-.05221-.00529-.14429-.0261-.19368a3.90815 3.90815 0 00-.03669-.08431s.19403.0822.33514.00529c.03316-.018.06068-.10513.05292-.11783-.00812-.01305.17286.15981.17286.15981l.1076.09666s.01587-.0074.01587-.02328-.06068-.4064-.08431-.47484c-.02364-.06773-.02858-.10195-.01306-.10195s.1076.04198.1076.04198l.0628.0395z" fill="#ffffff" fill-rule="evenodd"/></svg>